<svg width="12" height="12" viewBox="0 0 12 12" fill="none" xmlns="http://www.w3.org/2000/svg">
<path d="M0.753906 11.5347C0.847657 11.2238 0.94337 10.9136 1.03429 10.602C1.19017 10.0675 1.33952 9.5308 1.50021 8.99781C1.52811 8.90512 1.58393 8.81048 1.65217 8.742C4.24776 6.14096 6.84618 3.54296 9.44416 0.944754C9.63951 0.749354 9.80913 0.750663 10.0064 0.947808C10.5888 1.52986 11.1709 2.11214 11.753 2.69463C11.9501 2.89178 11.9514 3.06144 11.7561 3.25684C9.15833 5.85527 6.56078 8.45392 3.95996 11.0495C3.88932 11.1199 3.7899 11.1756 3.69375 11.2041C2.87245 11.4482 2.04876 11.6843 1.22571 11.9234C1.20565 11.9292 1.1869 11.9399 1.1675 11.9484H0.993298C0.884067 11.8978 0.80536 11.8172 0.753906 11.7088C0.753906 11.6508 0.753906 11.5927 0.753906 11.5345V11.5347ZM4.13765 9.92857C5.97974 8.08623 7.82271 6.24302 9.6587 4.40678C9.20499 3.95296 8.7467 3.49455 8.29473 3.04247C6.45657 4.88089 4.61338 6.72432 2.77347 8.56448C3.225 9.01591 3.68133 9.47213 4.13787 9.92857H4.13765ZM8.78246 2.55113C9.23987 3.00867 9.69729 3.4662 10.1405 3.90956C10.4519 3.60119 10.7704 3.28585 11.0728 2.98642C10.6195 2.53369 10.1626 2.07703 9.70884 1.62386C9.40535 1.92764 9.09074 2.24255 8.78246 2.55113ZM2.2731 9.02594C2.21576 9.10619 2.13466 9.17642 2.10828 9.26321C1.92906 9.85421 1.76118 10.4485 1.59047 11.0421C1.58327 11.0674 1.58327 11.0949 1.57848 11.1313C1.61925 11.121 1.64715 11.1151 1.67441 11.1073C2.24345 10.9435 2.81163 10.7763 3.38241 10.6179C3.51061 10.5824 3.58888 10.5002 3.66301 10.4164C3.2008 9.95431 2.74535 9.49874 2.27289 9.02616L2.2731 9.02594Z" fill="#777777"/>
</svg>
